<?xml version="1.0" encoding="utf-8"?>
<!-- Generator: Adobe Illustrator 25.2.3, SVG Export Plug-In . SVG Version: 6.00 Build 0)  -->
<svg version="1.1"
	 id="svg8" xmlns:cc="http://creativecommons.org/ns#" xmlns:dc="http://purl.org/dc/elements/1.1/" xmlns:inkscape="http://www.inkscape.org/namespaces/inkscape" xmlns:rdf="http://www.w3.org/1999/02/22-rdf-syntax-ns#" xmlns:sodipodi="http://sodipodi.sourceforge.net/DTD/sodipodi-0.dtd" xmlns:svg="http://www.w3.org/2000/svg"
	 xmlns="http://www.w3.org/2000/svg" xmlns:xlink="http://www.w3.org/1999/xlink" x="0px" y="0px" viewBox="0 0 595.3 841.9"
	 style="enable-background:new 0 0 595.3 841.9;" xml:space="preserve">
<sodipodi:namedview  bordercolor="#666666" borderopacity="1.0" id="base" inkscape:current-layer="layer1" inkscape:cx="424.60997" inkscape:cy="510.90873" inkscape:document-rotation="0" inkscape:document-units="mm" inkscape:pageopacity="0.0" inkscape:pageshadow="2" inkscape:window-height="1040" inkscape:window-maximized="0" inkscape:window-width="1267" inkscape:window-x="182" inkscape:window-y="0" inkscape:zoom="0.70710678" pagecolor="#ffffff" showgrid="false">
	</sodipodi:namedview>
<path id="path2" d="M263.5,260.3c-16.5,0-32.9,1-48.8,2.9c-0.6,4-1,7.9-1,12c18-2.6,36.8-4,55.7-4c104.1,0,188.6,39.4,188.6,88.1
	c0,0,0,0,0,0c0,48.6-84.4,88.1-188.5,88.1c0,0,0,0,0,0c-104.1,0-188.6-39.4-188.6-88.1c0,0,0,0,0,0c0-23.5,20.2-46.1,56.1-62.6
	c-1.1-5.6-1.3-10.9-0.4-15.7c-50.1,18.3-79.4,46.4-79.5,76.1c0,1,0,2,0.1,3c1.2,155.3,93.2,280.5,206.4,280.6
	c62.8,0,119.1-38.6,157-99.5c36.4,11,79.2-9.3,102.2-48.5c26.8-45.5,17.9-100.4-19.9-122.6c-9.9-5.8-21.1-8.9-33-9.2
	c0-0.6,0-1.1,0-1.7h0c0-0.7,0.1-1.4,0.1-2.2C470,303.6,377.5,260.3,263.5,260.3L263.5,260.3z M469.1,382.2
	c6.7,1.1,13.1,3.4,18.9,6.8c31.3,18.4,38.7,63.9,16.5,101.7c-17.7,30.1-49.7,47-78.7,41.7C449.9,490.3,465.5,438.7,469.1,382.2z
	 M457.8,389.7c-7.4,132.6-89.4,237.1-187.8,237.1C175,626.8,94.1,529.3,82,403.1c36.1,31.2,105.8,50.7,181.6,50.7
	C350.7,453.7,428.4,428.1,457.8,389.7z"/>
<path id="path4" color-rendering="auto" image-rendering="auto" shape-rendering="auto" d="M378,600.2c-2.4,2-4.8,4-7.4,5.9
	c27,12.6,42.2,29.6,42.2,47.4c0,37-64.3,67.1-143.6,67.1c-79.3,0-143.6-30-143.6-67.1c0-16.1,12.4-31.6,34.9-43.8
	c-1.5-1.1-3-2.2-4.5-3.3c-25.4,13.4-39.5,30.8-39.6,48.7c0,40.7,70.4,73.7,157.2,73.7c0,0,0,0,0,0c86.8,0,157.2-33,157.2-73.7
	c0,0,0,0,0,0C430.9,634.1,411.6,614.1,378,600.2L378,600.2z"/>
<path id="path10" color-rendering="auto" image-rendering="auto" shape-rendering="auto" d="M401.7,575c-2.1,2.8-4.4,5.5-6.7,8.3
	c42.6,16.7,67.3,41.4,67.3,67.4c0,48.6-84.4,88.1-188.6,88.1c0,0,0,0,0,0c-104.1,0-188.6-39.4-188.6-88.1c0,0,0,0,0,0
	c0.1-22.7,19-44.5,52.7-60.9c-1.5-1.7-3-3.4-4.4-5.1c-38.5,18.1-60.2,42.6-60.2,68.2c0,53.4,92.4,96.7,206.5,96.7
	s206.5-43.3,206.5-96.7C486,622.1,454.7,593.2,401.7,575L401.7,575z"/>
<path id="path12" d="M87.1,112.1c0,0,67.6,3.1,79.9,56.9c12.3,53.8-49.2,112.2-10.8,161.4c38.4,49.2,190.5,58.4,190.5,58.4
	s-96.8-18.4-127.5-67.6c-30.7-49.2,18-149.3,12.3-182.9C219.3,66.5,86.5,96.5,87.1,112.1L87.1,112.1z"/>
</svg>
